<svg xmlns="http://www.w3.org/2000/svg" xml:space="preserve" id="Layer_1" x="0" y="0" style="enable-background:new 0 0 446.8 79.1" version="1.1" viewBox="0 0 446.8 79.1"><style>.st0{fill:#0d19c1}</style><path d="M15.6 36.7c6.4 3.8 12.6 3.9 17.4.4 4.5-3.3 7.3-9.4 7.9-17.3C34.3 14.9 28.1 8.1 22.8 0L1.4 15.5c-1.4 1-1.8 3-1 4.5 4.2 7.5 9.5 13.3 15.2 16.7z" class="st0"/><path d="M66.1 3C59.7-.8 53.5-.9 48.7 2.6c-4.5 3.3-7.3 9.4-7.9 17.3 6.6 4.9 12.8 11.7 18.1 19.8l21.3-15.5c1.4-1 1.8-3 1-4.5-4-7.5-9.4-13.4-15.1-16.7zM22.8 39.4 1.4 54.9c-1.4 1-1.8 3-1 4.5 4.1 7.5 9.5 13.3 15.2 16.7 6.4 3.8 12.6 3.9 17.4.4 4.5-3.3 7.3-9.4 7.9-17.3-6.6-4.9-12.8-11.6-18.1-19.8z" class="st0"/><path d="M66.1 42.4c-6.4-3.8-12.6-3.9-17.4-.4-4.5 3.3-7.3 9.4-7.9 17.3C47.5 64.2 53.6 71 59 79.1l21.3-15.5c1.4-1 1.8-3 1-4.5-4.1-7.5-9.5-13.3-15.2-16.7zM170.8 22.6l-15.5 32.9v1h6.6l3.5-7.8h18l3.5 7.8h6.6v-1L178 22.6h-7.2zM168.1 43l6.3-13.9 6.3 13.9h-12.6zM222.3 36.9l-8.2-1.1c-4.5-.6-6.2-1.6-6.2-3.6v-.4c0-2.6 3.3-4 9.1-4 6.5 0 9.8 1.8 9.8 5.3v.5h6.5v-.5c0-7.2-5.7-11.1-16.2-11.1-10 0-15.7 3.7-15.7 9.9v.5c0 5.1 3.8 8.1 11.2 9.1l8.2 1.1c5.1.7 6.7 1.7 6.7 4.1v.4c0 2.7-3.4 4.2-9.6 4.2-7.1 0-10.8-2-10.8-5.8V45h-6.5v.5c0 7.6 5.8 11.6 16.9 11.6 10.5 0 16.4-3.8 16.4-10.2v-.5c.1-5.5-3.6-8.4-11.6-9.5zM246.4 56.5h29.5v-5.8h-23.1v-8.3h22v-5.8h-22v-8.2h23.1v-5.8h-29.5zM342.2 22.6h-6.5v33.9h30.5v-5.8h-24zM398.6 41.7c0 5.9-3.8 9.5-10.2 9.5s-10.1-3.5-10.1-9.5V22.6h-6.5v19c0 9.4 6.6 15.6 16.6 15.6S405 51 405 41.6v-19h-6.5v19.1zM446.8 28.4v-5.8h-29.5v33.9h29.5v-5.8h-23v-8.3h22v-5.8h-22v-8.2zM143.1 39.1c2.5-1.6 3.9-4 3.9-7.1v-.6c0-5.6-4.5-8.8-12.3-8.8h-19.8v33.9h20.8c7.5 0 12.4-3.8 12.4-9.6v-.6c0-3.3-1.8-5.8-5-7.2zm-2.6 11.6h-19.1v-8.4h19.1v8.4zm0-14.2h-19.1v-8.1h19.1v8.1zM318.4 39.1c2.5-1.6 3.9-4 3.9-7.1v-.6c0-5.6-4.5-8.8-12.3-8.8h-19.8v33.9H311c7.5 0 12.4-3.8 12.4-9.6v-.6c.1-3.3-1.7-5.8-5-7.2zm-2.6 11.6h-19.1v-8.4h19.1v8.4zm0-14.2h-19.1v-8.1h19.1v8.1z" class="st0"/></svg>
