{
  "accessors": [
    {
      "bufferView": 0,
      "componentType": 5125,
      "count": 6912,
      "type": "SCALAR"
    },
    {
      "bufferView": 1,
      "componentType": 5126,
      "count": 1932,
      "max": [
        0.051874205267608886,
        -0.016555761310209638,
        0.009999999747378752
      ],
      "min": [
        0.038325377490459944,
        -0.030104979711618296,
        -0.009999999747378752
      ],
      "type": "VEC3"
    },
    {
      "bufferView": 2,
      "componentType": 5126,
      "count": 1932,
      "max": [
        1.0,
        0.9999999999999958,
        1.0
      ],
      "min": [
        -1.0,
        -0.9999999999999958,
        -1.0
      ],
      "type": "VEC3"
    },
    {
      "bufferView": 3,
      "componentType": 5126,
      "count": 1932,
      "max": [
        1.0,
        0.8891241352223554
      ],
      "min": [
        0.0,
        0.0
      ],
      "type": "VEC2"
    },
    {
      "bufferView": 4,
      "componentType": 5125,
      "count": 36828,
      "type": "SCALAR"
    },
    {
      "bufferView": 5,
      "componentType": 5126,
      "count": 10426,
      "max": [
        0.07907891645829368,
        0.07470029111848292,
        0.009999999747378752
      ],
      "min": [
        -0.07907891645829346,
        -0.07470029111848286,
        -0.009999999747378752
      ],
      "type": "VEC3"
    },
    {
      "bufferView": 6,
      "componentType": 5126,
      "count": 10426,
      "max": [
        1.0,
        1.0,
        1.0
      ],
      "min": [
        -1.0,
        -1.0,
        -1.0
      ],
      "type": "VEC3"
    },
    {
      "bufferView": 7,
      "componentType": 5126,
      "count": 10426,
      "max": [
        0.9998890300203019,
        1.0
      ],
      "min": [
        0.0,
        0.0
      ],
      "type": "VEC2"
    }
  ],
  "asset": {
    "generator": "Adobe Illustrator",
    "version": "2.0"
  },
  "bufferViews": [
    {
      "buffer": 0,
      "byteLength": 27648,
      "target": 34963
    },
    {
      "buffer": 0,
      "byteLength": 23184,
      "byteOffset": 27648,
      "target": 34962
    },
    {
      "buffer": 0,
      "byteLength": 23184,
      "byteOffset": 50832,
      "target": 34962
    },
    {
      "buffer": 0,
      "byteLength": 15456,
      "byteOffset": 74016,
      "target": 34962
    },
    {
      "buffer": 0,
      "byteLength": 147312,
      "byteOffset": 89472,
      "target": 34963
    },
    {
      "buffer": 0,
      "byteLength": 125112,
      "byteOffset": 236784,
      "target": 34962
    },
    {
      "buffer": 0,
      "byteLength": 125112,
      "byteOffset": 361896,
      "target": 34962
    },
    {
      "buffer": 0,
      "byteLength": 83408,
      "byteOffset": 487008,
      "target": 34962
    }
  ],
  "buffers": [
    {
      "byteLength": 570416,
      "uri": "data:application/octet-stream;base64,"
    }
  ],
  "materials": [
    {
      "doubleSided": true,
      "pbrMetallicRoughness": {
        "baseColorFactor": [
          0.5,
          0.5,
          0.5,
          1.0
        ],
        "metallicFactor": 0.04232336953282356,
        "roughnessFactor": 0.4000000059604645
      }
    },
    {
      "doubleSided": true,
      "pbrMetallicRoughness": {
        "baseColorFactor": [
          0.5,
          0.5,
          0.5,
          1.0
        ],
        "metallicFactor": 0.04232336953282356,
        "roughnessFactor": 0.4000000059604645
      }
    }
  ],
  "meshes": [
    {
      "primitives": [
        {
          "attributes": {
            "NORMAL": 2,
            "POSITION": 1,
            "TEXCOORD_0": 3
          },
          "indices": 0,
          "material": 0,
          "mode": 4
        }
      ]
    },
    {
      "primitives": [
        {
          "attributes": {
            "NORMAL": 6,
            "POSITION": 5,
            "TEXCOORD_0": 7
          },
          "indices": 4,
          "material": 1,
          "mode": 4
        }
      ]
    }
  ],
  "nodes": [
    {
      "mesh": 0
    },
    {
      "mesh": 1
    }
  ],
  "scenes": [
    {
      "nodes": [
        0,
        1
      ]
    }
  ]
}
